Coordinates
version=1
nRows=8
nColumns=34
inDegrees=yes

Units are S.I. units (second, meters, Newtons, ...)
If the header above contains a line with 'inDegrees', this indicates whether rotational values are in degrees (yes) or radians (no).

endheader
time	pelvis_tilt	pelvis_list	pelvis_rotation	pelvis_tx	pelvis_ty	pelvis_tz	hip_flexion_r	hip_adduction_r	hip_rotation_r	knee_angle_r	ankle_angle_r	subtalar_angle_r	mtp_angle_r	hip_flexion_l	hip_adduction_l	hip_rotation_l	knee_angle_l	ankle_angle_l	subtalar_angle_l	mtp_angle_l	lumbar_extension	lumbar_bending	lumbar_rotation	arm_flex_r	arm_add_r	arm_rot_r	elbow_flex_r	pro_sup_r	arm_flex_l	arm_add_l	arm_rot_l	elbow_flex_l	pro_sup_l
      0.00000000	     -2.82003375	     -1.22078806	     -1.17182674	      0.06845917	      0.81887531	     -0.06275327	      1.15958566	      0.08041146	     -2.14754723	      5.27229843	      5.50715287	     -5.22079208	      0.00000000	      0.78174497	     -6.47514644	     -3.29937026	      1.33354826	      3.69897614	     -1.09619304	      0.00000000	     -5.98023584	      1.73574232	      3.64347163	     39.75929795	      1.82728602	     61.04851451	    104.28648832	    112.50489236	     30.06314962	      6.22779014	     52.04905137	    110.46007027	    103.23753423
      0.01666670	     -4.84417797	     -1.23422432	     -1.30847971	      0.06624327	      0.81983600	     -0.06603520	      3.52279350	      0.09897449	     -1.47752910	      5.67819021	      7.92362514	     -4.21528121	      0.00000000	      3.13527591	     -5.98503250	     -3.17582774	      1.08433052	      3.01984357	     -0.17762040	      0.00000000	     -3.95446858	      1.74740814	      3.77771794	     41.67516085	      2.26923363	     61.88594383	    107.55104321	    111.99980875	     32.26691637	      7.35245971	     55.64498984	    114.35958976	    103.38313411
      0.03333330	     -5.74986747	     -0.83125860	     -1.27367448	      0.05932613	      0.82101045	     -0.06736864	      4.43886526	     -0.27738473	     -2.50396357	      4.88889481	      7.44798642	     -4.00427118	      0.00000000	      4.57283015	     -5.56659952	     -3.67857364	      1.15864638	      2.36417075	      0.01514075	      0.00000000	     -3.56995629	      1.12984719	      3.58526434	     43.28340894	      3.27507664	     62.03413572	    111.21014582	    111.41888605	     35.62280974	      8.70675445	     57.21878633	    116.51804473	    102.91366354
      0.05000000	     -5.67942567	     -0.66534895	     -1.05236283	      0.05385396	      0.82048126	     -0.06948987	      4.36843593	     -0.53431717	     -2.77165861	      4.31714902	      7.22984130	     -3.40576754	      0.00000000	      4.69030003	     -5.29157193	     -3.49777884	      0.79349193	      2.06377345	     -0.13132298	      0.00000000	     -4.01315877	      0.72085988	      3.88906628	     46.02060052	      4.40249361	     61.43056512	    113.57151370	    110.51018340	     39.13546297	     10.27247437	     59.70126109	    118.62379481	    101.83877192
      0.06666670	     -5.32688327	     -0.43923922	     -0.78252460	      0.05718968	      0.82338466	     -0.07229498	      3.73352513	     -0.87404832	     -3.45639488	      3.47411340	      6.90067791	     -2.26747149	      0.00000000	      4.20010325	     -4.83568817	     -3.19125509	      0.19732420	      1.13725306	     -0.52276036	      0.00000000	     -4.24249432	      0.26551136	      5.13021122	     47.35667179	      4.29262253	     60.51650472	    115.77601301	    104.81422107	     41.70890594	     12.13384887	     62.38976928	    118.16798630	     92.35969364
      0.08333330	     -5.62417122	     -0.21444458	     -0.30632683	      0.05341844	      0.82155044	     -0.07349686	      3.92139614	     -1.18186020	     -3.45161951	      2.85294809	      6.49379467	     -2.61124308	      0.00000000	      4.86275450	     -4.43425775	     -2.95839820	      0.32562891	      1.38098808	     -0.42663098	      0.00000000	     -3.93907045	      0.16131850	      4.38035119	     48.97787415	      5.70563372	     60.34231198	    116.16348184	    104.28081885	     43.05941578	     12.75667783	     63.69085092	    120.04066868	     91.31786063
      0.10000000	     -5.81355650	     -0.07045631	     -0.16268064	      0.05416530	      0.82328579	     -0.07434780	      4.01046278	     -1.44283073	     -3.64962695	      2.36181214	      6.25608287	     -2.63062433	      0.00000000	      5.02312468	     -4.10436665	     -2.93642777	      0.00000000	      1.32678584	     -0.38475210	      0.00000000	     -3.59581130	      0.18966132	      4.41965922	     49.87081554	      6.44612057	     60.11173645	    116.41458332	    104.20824490	     43.49119265	     13.54224653	     63.90083826	    120.31243854	     91.19397578
      0.11666670	     -5.99168477	      0.03259475	      0.24280136	      0.05250813	      0.82057884	     -0.07632943	      4.18248157	     -1.67055020	     -4.11268247	      2.13201384	      5.57454158	     -2.93969095	      0.00000000	      5.50315372	     -3.84128147	     -2.47315165	      0.22170252	      1.15772104	     -0.51625608	      0.00000000	     -3.86660938	     -0.08792505	      3.80733765	     50.91048258	      7.40498263	     60.34397655	    118.20040480	    103.73007333	     44.62323912	     13.80588000	     66.01303346	    121.63227140	     90.20446561
